<svg width="46" height="37" viewBox="0 0 46 37" fill="none" xmlns="http://www.w3.org/2000/svg">
<g clip-path="url(#clip0_1399_8854)">
<path fill-rule="evenodd" clip-rule="evenodd" d="M4.09473 34.5322V36.3389H4.65649V35.6864H5.06164L5.20577 35.2915H4.65649V34.9249H5.33855L5.48154 34.5322H4.09473Z" fill="#A5ACBB"/>
<path d="M6.21719 34.5322H5.6543V36.3401H6.21719V34.5322Z" fill="#A5ACBB"/>
<path fill-rule="evenodd" clip-rule="evenodd" d="M6.60352 34.5322V36.3389H7.16641V35.6864H7.57043L7.71456 35.2915H7.16641V34.9249H7.84734L7.99147 34.5322H6.60352Z" fill="#A5ACBB"/>
<path fill-rule="evenodd" clip-rule="evenodd" d="M9.60224 36.3389H9.03367L8.9599 36.0961H8.32438L8.25401 36.3389H7.7002L8.35842 34.5322H8.94288L9.60111 36.3389H9.60224ZM8.86798 35.7488L8.64327 34.9964L8.42651 35.7488H8.86912H8.86798Z" fill="#A5ACBB"/>
<path d="M9.40416 34.8535C9.38146 34.8535 9.36103 34.8489 9.34174 34.841C9.32245 34.8331 9.30542 34.8206 9.29067 34.807C9.27592 34.7922 9.26457 34.7752 9.25662 34.7559C9.24868 34.7366 9.24414 34.715 9.24414 34.6935C9.24414 34.6719 9.24868 34.6503 9.25662 34.631C9.26457 34.6118 9.27705 34.5947 9.29067 34.58C9.30429 34.5652 9.32245 34.5539 9.34174 34.5459C9.36103 34.538 9.3826 34.5334 9.40416 34.5334C9.42572 34.5334 9.44728 34.538 9.46658 34.5459C9.48587 34.5539 9.50289 34.5664 9.51765 34.58C9.5324 34.5947 9.54375 34.6118 9.55169 34.631C9.55964 34.6503 9.56417 34.6719 9.56417 34.6935C9.56417 34.715 9.55964 34.7366 9.55169 34.7559C9.54375 34.7752 9.53126 34.7922 9.51765 34.807C9.50289 34.8217 9.48587 34.8331 9.46658 34.841C9.44728 34.8489 9.42572 34.8535 9.40416 34.8535ZM9.40416 34.8228C9.42118 34.8228 9.43707 34.8194 9.45182 34.8138C9.46658 34.807 9.47906 34.7979 9.49041 34.7865C9.50176 34.7752 9.5097 34.7616 9.51651 34.7457C9.52332 34.7298 9.52559 34.7128 9.52559 34.6935C9.52559 34.6742 9.52218 34.6571 9.51651 34.6413C9.5097 34.6254 9.50176 34.6118 9.49041 34.6004C9.47906 34.5891 9.46658 34.58 9.45182 34.5732C9.43707 34.5664 9.42118 34.5641 9.40416 34.5641C9.38714 34.5641 9.37125 34.5675 9.35649 34.5732C9.34174 34.58 9.32926 34.5891 9.31791 34.6004C9.30656 34.6118 9.29862 34.6254 9.29181 34.6413C9.285 34.6571 9.28273 34.6742 9.28273 34.6935C9.28273 34.7128 9.28613 34.7298 9.29181 34.7457C9.29862 34.7616 9.30656 34.7752 9.31791 34.7865C9.32926 34.7979 9.34174 34.807 9.35649 34.8138C9.37125 34.8206 9.38714 34.8228 9.40416 34.8228ZM9.34287 34.6004H9.41097C9.43253 34.6004 9.44955 34.6049 9.4609 34.6129C9.47225 34.6208 9.47793 34.6345 9.47793 34.6537C9.47793 34.6696 9.47339 34.681 9.46544 34.6889C9.4575 34.6969 9.44501 34.7014 9.43026 34.7025L9.47906 34.782H9.44388L9.39621 34.7037H9.37579V34.782H9.34174V34.5993L9.34287 34.6004ZM9.37692 34.6787H9.40643C9.40643 34.6787 9.41664 34.6787 9.42118 34.6787C9.42572 34.6787 9.42913 34.6764 9.43253 34.6753C9.43593 34.673 9.4382 34.6708 9.44047 34.6674C9.44274 34.664 9.44388 34.6594 9.44388 34.6526C9.44388 34.6469 9.44388 34.6435 9.44047 34.6401C9.4382 34.6367 9.4348 34.6345 9.43139 34.6322C9.42799 34.6299 9.42345 34.6288 9.42005 34.6288C9.41551 34.6288 9.41097 34.6288 9.40643 34.6288H9.37579V34.681L9.37692 34.6787Z" fill="#A5ACBB"/>
<path d="M10.4648 34.5347H11.4692V34.8195H10.8269V35.2644H11.4374V35.5492H10.8269V36.3414H10.4648V34.5347Z" fill="#A5ACBB"/>
<path d="M12.5561 34.5029C13.1235 34.5029 13.4413 34.8865 13.4413 35.4324C13.4413 35.9783 13.1281 36.3721 12.5561 36.3721C11.9841 36.3721 11.6709 35.9862 11.6709 35.4324C11.6709 34.8786 11.9819 34.5029 12.5561 34.5029ZM12.5561 36.0872C12.9261 36.0872 13.0634 35.7581 13.0634 35.4324C13.0634 35.1067 12.9159 34.7878 12.5561 34.7878C12.1963 34.7878 12.0488 35.1135 12.0488 35.4324C12.0488 35.7513 12.1861 36.0872 12.5561 36.0872Z" fill="#A5ACBB"/>
<path d="M14.5707 34.5029C15.1382 34.5029 15.456 34.8865 15.456 35.4324C15.456 35.9783 15.1427 36.3721 14.5707 36.3721C13.9988 36.3721 13.6855 35.9862 13.6855 35.4324C13.6855 34.8786 13.9965 34.5029 14.5707 34.5029ZM14.5707 36.0872C14.9407 36.0872 15.078 35.7581 15.078 35.4324C15.078 35.1067 14.9305 34.7878 14.5707 34.7878C14.211 34.7878 14.0635 35.1135 14.0635 35.4324C14.0635 35.7513 14.2008 36.0872 14.5707 36.0872Z" fill="#A5ACBB"/>
<path d="M16.1181 34.8185H15.6006V34.5337H16.9987V34.8185H16.4812V36.3404H16.1192V34.8185H16.1181Z" fill="#A5ACBB"/>
<path d="M17.2285 34.5347H17.8595C18.0922 34.5347 18.4417 34.6016 18.4417 34.9977C18.4417 35.2122 18.2964 35.3631 18.0819 35.4017V35.4074C18.3282 35.4312 18.4962 35.5958 18.4962 35.8193C18.4962 36.2744 18.0876 36.3425 17.8595 36.3425H17.2285V34.5358V34.5347ZM17.5905 35.2644H17.7381C17.8913 35.2644 18.0797 35.2303 18.0797 35.0442C18.0797 34.8343 17.8958 34.8195 17.7301 34.8195H17.5905V35.2644ZM17.5905 36.0565H17.7619C17.9299 36.0565 18.1341 36.0145 18.1341 35.8057C18.1341 35.5697 17.9424 35.5334 17.7619 35.5334H17.5905V36.0565Z" fill="#A5ACBB"/>
<path d="M19.328 34.5347H19.7365L20.4458 36.3414H20.0441L19.8886 35.9272H19.1555L18.9977 36.3414H18.6221L19.3257 34.5347H19.328ZM19.5266 34.8967H19.5209L19.2599 35.6423H19.7876L19.5266 34.8967Z" fill="#A5ACBB"/>
<path d="M20.6797 34.5347H21.0417V36.0565H21.7431V36.3414H20.6797V34.5347Z" fill="#A5ACBB"/>
<path d="M21.9746 34.5347H22.3366V36.0565H23.038V36.3414H21.9746V34.5347Z" fill="#A5ACBB"/>
<path d="M24.5092 34.5347H24.9177L25.627 36.3414H25.2253L25.0698 35.9272H24.3367L24.1789 36.3414H23.7715L24.508 34.5347H24.5092ZM24.7078 34.8967H24.7021L24.4411 35.6423H24.9688L24.7078 34.8967Z" fill="#A5ACBB"/>
<path d="M25.582 34.5347H25.9622L26.2993 35.9794H26.3049L26.6125 34.5347H27.1039L27.4228 35.9794H27.4285L27.7678 34.5347H28.1196L27.6486 36.3414H27.1822L26.8565 34.8967H26.8508L26.5296 36.3414H26.0609L25.582 34.5347Z" fill="#A5ACBB"/>
<path d="M28.7762 34.5347H29.1848L29.8941 36.3414H29.4923L29.3368 35.9272H28.6037L28.446 36.3414H28.0703L28.7739 34.5347H28.7762ZM28.9759 34.8967H28.9703L28.7092 35.6423H29.237L28.9759 34.8967Z" fill="#A5ACBB"/>
<path d="M30.0968 34.5347H30.4872C30.8754 34.5347 31.3384 34.5222 31.3384 35.0238C31.3384 35.236 31.1965 35.412 30.9662 35.4426V35.4483C31.0649 35.4562 31.1216 35.5549 31.1579 35.6344L31.4473 36.3414H31.0433L30.8254 35.7774C30.7732 35.6423 30.7267 35.5913 30.5746 35.5913H30.4577V36.3414H30.0957V34.5347H30.0968ZM30.4589 35.3053H30.578C30.7562 35.3053 30.9616 35.2792 30.9616 35.0545C30.9616 34.8298 30.7596 34.8196 30.578 34.8196H30.4589V35.3064V35.3053Z" fill="#A5ACBB"/>
<path d="M31.71 34.5347H32.2048C32.7586 34.5347 33.2477 34.7208 33.2477 35.438C33.2477 36.1553 32.7586 36.3414 32.2048 36.3414H31.71V34.5347ZM32.0731 36.0565H32.2751C32.5781 36.0565 32.8709 35.8318 32.8709 35.438C32.8709 35.0442 32.5781 34.8195 32.2751 34.8195H32.0731V36.0565Z" fill="#A5ACBB"/>
<path d="M34.551 34.8649C34.4375 34.8161 34.3104 34.7877 34.1833 34.7877C34.0562 34.7877 33.8984 34.8422 33.8984 35.0385C33.8984 35.3517 34.6906 35.2201 34.6906 35.825C34.6906 36.221 34.3773 36.3708 34.0119 36.3708C33.8156 36.3708 33.7271 36.3447 33.5489 36.3005L33.5829 35.9748C33.7066 36.0417 33.8496 36.086 33.9915 36.086C34.1333 36.086 34.3127 36.0156 34.3127 35.8533C34.3127 35.5095 33.5205 35.6513 33.5205 35.0533C33.5205 34.6492 33.8337 34.5017 34.1515 34.5017C34.307 34.5017 34.4522 34.5221 34.5839 34.5664L34.5498 34.8637L34.551 34.8649Z" fill="#A5ACBB"/>
<path d="M35.7705 36.1858L36.1847 35.7273C36.2982 35.6048 36.3992 35.4799 36.4855 35.3517C36.5717 35.2257 36.6171 35.1077 36.6205 34.9976C36.6194 34.8989 36.5888 34.8206 36.5297 34.7616C36.4707 34.7025 36.3947 34.673 36.3016 34.6708C36.1462 34.6719 36.0009 34.715 35.867 34.8001L35.8363 34.6367C35.9056 34.6027 35.9805 34.5732 36.0622 34.5482C36.1416 34.5255 36.2188 34.5142 36.2926 34.5142C36.4446 34.5142 36.5683 34.5516 36.6648 34.6276C36.7635 34.7048 36.8135 34.8251 36.8146 34.9874C36.8112 35.1236 36.7578 35.2643 36.6546 35.4096C36.5524 35.556 36.4401 35.6956 36.3175 35.8261L35.9907 36.1836H36.8554V36.339H35.7705V36.1836V36.1858Z" fill="#A5ACBB"/>
<path d="M37.6582 34.5154C37.7785 34.5177 37.8784 34.5449 37.9555 34.5982C38.0327 34.6538 38.094 34.7265 38.1371 34.8161C38.2166 35.0056 38.254 35.2133 38.2506 35.4369C38.2506 35.5322 38.2449 35.6321 38.2324 35.7376C38.2188 35.8443 38.1916 35.9453 38.1496 36.0384C38.1099 36.1314 38.0509 36.2075 37.9714 36.2665C37.892 36.3266 37.7876 36.3584 37.6582 36.3596C37.5322 36.3584 37.4301 36.3266 37.3529 36.2665C37.2735 36.2075 37.2133 36.1314 37.1713 36.0384C37.1316 35.9453 37.1044 35.8455 37.0885 35.7376C37.0715 35.6321 37.0635 35.5322 37.0647 35.4369C37.0613 35.2122 37.0998 35.0056 37.1816 34.8161C37.2247 34.7265 37.286 34.6538 37.3654 34.5982C37.4426 34.5449 37.5402 34.5177 37.6582 34.5154ZM37.6582 34.6709C37.5651 34.672 37.4914 34.6981 37.438 34.7458C37.3813 34.7957 37.3393 34.8604 37.3109 34.9398C37.2837 35.0193 37.2655 35.1021 37.2565 35.1884C37.2474 35.278 37.244 35.3609 37.244 35.4369C37.244 35.5129 37.2485 35.5946 37.2565 35.6832C37.2655 35.7694 37.2837 35.8523 37.3109 35.9317C37.3382 36.0111 37.3813 36.0747 37.438 36.1235C37.4914 36.1768 37.5651 36.2041 37.6582 36.2041C37.7513 36.2041 37.8284 36.1768 37.884 36.1235C37.9396 36.0758 37.9805 36.0111 38.0077 35.9317C38.035 35.8523 38.0543 35.7694 38.0645 35.6832C38.0702 35.5946 38.0724 35.5129 38.0724 35.4369C38.0724 35.3609 38.0702 35.278 38.0645 35.1884C38.0543 35.1021 38.035 35.0193 38.0077 34.9398C37.9805 34.8604 37.9385 34.7957 37.884 34.7458C37.8284 34.6981 37.7535 34.672 37.6582 34.6709Z" fill="#A5ACBB"/>
<path d="M38.4033 36.1858L38.8175 35.7273C38.931 35.6048 39.032 35.4799 39.1183 35.3517C39.2045 35.2257 39.2499 35.1077 39.2533 34.9976C39.2522 34.8989 39.2216 34.8206 39.1626 34.7616C39.1035 34.7025 39.0275 34.673 38.9344 34.6708C38.779 34.6719 38.6337 34.715 38.4998 34.8001L38.4691 34.6367C38.5384 34.6027 38.6133 34.5732 38.695 34.5482C38.7744 34.5255 38.8516 34.5142 38.9254 34.5142C39.0774 34.5142 39.2011 34.5516 39.2976 34.6276C39.3963 34.7048 39.4463 34.8251 39.4474 34.9874C39.444 35.1236 39.3907 35.2643 39.2874 35.4096C39.1852 35.556 39.0729 35.6956 38.9503 35.8261L38.6235 36.1836H39.4883V36.339H38.4033V36.1836V36.1858Z" fill="#A5ACBB"/>
<path d="M39.6309 35.7478L40.4434 34.5334H40.6715V35.7682H40.9382V35.9237H40.6715V36.3402H40.4934V35.9237H39.6309V35.7478ZM40.4922 34.7128H40.4866L39.7931 35.7693H40.4922V34.7128Z" fill="#A5ACBB"/>
<path d="M34.8306 34.6094V34.8318H34.792V34.6094H34.7217V34.5742H34.9021V34.6094H34.8318H34.8306Z" fill="#A5ACBB"/>
<path d="M35.1345 34.8318V34.6593L35.0755 34.7853H35.0471L34.9859 34.6593V34.8318H34.9473V34.5742H34.9859L35.0608 34.7342L35.1345 34.5742H35.1731V34.8318H35.1345Z" fill="#A5ACBB"/>
<path d="M6.13924 28.8533H0.0166016V31.2729H6.13924C7.93348 31.2729 9.39293 29.8134 9.39293 28.0192H6.97338C6.97338 28.4788 6.59887 28.8533 6.13924 28.8533ZM26.6158 20.6765V23.0961H32.6907V22.1882C32.6907 21.3529 32.0132 20.6754 31.178 20.6754H26.6146L26.6158 20.6765ZM6.13924 20.6777H0.0166016V23.0972H6.15513C6.60795 23.1052 6.97338 23.4763 6.97338 23.9314C6.97338 24.3864 6.59887 24.7655 6.13924 24.7655H1.09587V27.185H6.13924C7.93348 27.185 9.39293 25.7256 9.39293 23.9314C9.39293 22.1371 7.93348 20.6777 6.13924 20.6777ZM14.0697 23.0972H18.1734C18.6331 23.0972 19.0076 23.4717 19.0076 23.9314H21.4271C21.4271 22.1371 19.9677 20.6777 18.1734 20.6777H14.0856C12.2914 20.6777 10.8319 22.1371 10.8319 23.9314C10.8319 25.7256 12.2914 27.185 14.0856 27.185H18.1734V24.7655H14.0856C13.626 24.7655 13.2515 24.391 13.2515 23.9314C13.2515 23.4717 13.6169 23.1063 14.0697 23.0972ZM18.1734 28.8533H14.0856C13.626 28.8533 13.2515 28.4788 13.2515 28.0192H10.8319C10.8319 29.8134 12.2914 31.2729 14.0856 31.2729H18.1734C19.9677 31.2729 21.4271 29.8134 21.4271 28.0192H19.0076C19.0076 28.4788 18.6331 28.8533 18.1734 28.8533ZM37.6751 20.6765H34.4203V23.0961H37.6751C38.1347 23.0961 38.5092 23.4706 38.5092 23.9302V31.2717H40.9288V23.9302C40.9288 22.136 39.4693 20.6765 37.6751 20.6765ZM30.211 24.7655H26.5159C26.0563 24.7655 25.6818 24.391 25.6818 23.9314V20.6777H23.2622V23.9325C23.2622 25.7267 24.7217 27.1862 26.5159 27.1862H30.211C30.6707 27.1862 31.0452 27.5607 31.0452 28.0203C31.0452 28.4799 30.6797 28.8454 30.2269 28.8544H26.1232C25.6636 28.8544 25.2891 28.4799 25.2891 28.0203H22.8695C22.8695 29.8145 24.329 31.274 26.1232 31.274H30.211C32.0053 31.274 33.4647 29.8145 33.4647 28.0203C33.4647 26.2261 32.0053 24.7666 30.211 24.7666V24.7655ZM41.6199 20.6765V23.0961H45.0166V20.6765H41.6199ZM19.6908 14.5074H20.9005H24.6127V18.5952H27.0323V8H24.6127V12.0878H19.7089C19.7033 12.0878 19.6976 12.0878 19.6919 12.0878C19.2323 12.0878 18.8578 11.7133 18.8578 11.2537V8H16.4382V11.2537C16.4382 13.0479 17.8977 14.5074 19.6919 14.5074H19.6908ZM31.725 14.5074H35.8128V12.0878H31.725C31.2653 12.0878 30.8908 11.7133 30.8908 11.2537C30.8908 10.7941 31.2563 10.4286 31.7091 10.4196H35.8128C36.2724 10.4196 36.6469 10.7941 36.6469 11.2537H39.0665C39.0665 9.45945 37.607 8 35.8128 8H31.725C29.9307 8 28.4713 9.45945 28.4713 11.2537C28.4713 13.0479 29.9307 14.5074 31.725 14.5074ZM31.725 18.5952H35.8128C37.607 18.5952 39.0665 17.1357 39.0665 15.3415H36.6469C36.6469 15.8011 36.2724 16.1756 35.8128 16.1756H31.725C31.2653 16.1756 30.8908 15.8011 30.8908 15.3415H28.4713C28.4713 17.1357 29.9307 18.5952 31.725 18.5952ZM18.8566 15.3415H16.4371V18.5952H18.8566V15.3415ZM8.46119 11.2537V18.5952H10.8807V11.2537C10.8807 9.45945 9.4213 8 7.62706 8H4.37225V10.4196H7.62706C8.08669 10.4196 8.46119 10.7941 8.46119 11.2537ZM14.9686 8H11.5719V10.4196H14.9686V8Z" fill="#A5ACBB"/>
</g>
<defs>
<clipPath id="clip0_1399_8854">
<rect width="45" height="36.3718" fill="white" transform="translate(0.0166016)"/>
</clipPath>
</defs>
</svg>
