<svg width="31" height="47" viewBox="0 0 31 47" fill="none" xmlns="http://www.w3.org/2000/svg">
<g clip-path="url(#clip0_1728_212)">
<path d="M29.8999 46.2065H29.7704V47.0232H29.8999V46.6987H30.5603V46.5326H29.8999V46.2065Z" fill="#A5ACBB"/>
<path d="M30.5601 45.0293H29.8429C29.8208 45.0293 29.8034 45.0356 29.7908 45.0465C29.7782 45.0591 29.7719 45.0763 29.7719 45.0983V45.2801L30.3974 45.5685L29.7719 45.8569V46.0372C29.7719 46.0591 29.7782 46.0763 29.7908 46.0889C29.8034 46.1014 29.8208 46.1077 29.8429 46.1077H30.5601V45.9478H29.9014L30.5601 45.6484V45.4901L29.8998 45.1892H30.5601V45.0293Z" fill="#A5ACBB"/>
<path fill-rule="evenodd" clip-rule="evenodd" d="M17.7497 24.1636H23.0374C27.279 24.1636 30.7166 27.5744 30.7166 31.783H23.0374C27.279 31.783 30.7166 35.1937 30.7166 39.4023C30.7166 43.6109 27.279 47.0216 23.0374 47.0216H7.67906C3.43742 47.0216 -0.00012207 43.6109 -0.00012207 39.4023V31.783C-0.00012207 27.5744 3.43742 24.1636 7.67906 24.1636H12.0954C12.0989 24.1963 12.1013 24.2292 12.1036 24.262C12.1061 24.2981 12.1086 24.3341 12.1128 24.3699C12.1163 24.3989 12.1234 24.4276 12.1306 24.4563C12.1337 24.4689 12.1369 24.4816 12.1397 24.4942C12.1466 24.5246 12.1536 24.555 12.1606 24.5853C12.1733 24.6402 12.186 24.6951 12.1975 24.7503C12.2016 24.7694 12.1997 24.7905 12.1966 24.8099C12.1827 24.8944 12.1982 24.9744 12.2319 25.0514C12.2668 25.1309 12.2857 25.2116 12.264 25.2994C12.2439 25.3804 12.2449 25.4624 12.2591 25.5455C12.2656 25.5839 12.26 25.6256 12.2532 25.6646C12.2425 25.7257 12.2307 25.7865 12.2189 25.8474C12.2064 25.9119 12.1938 25.9764 12.1827 26.0412C12.1583 26.1856 12.1592 26.3306 12.1957 26.4725C12.2084 26.522 12.2356 26.5696 12.2643 26.6126C12.3017 26.6682 12.337 26.7208 12.3129 26.7925C12.3086 26.8059 12.3108 26.822 12.3129 26.8373C12.3132 26.8397 12.3135 26.8421 12.3138 26.8445C12.3215 26.9029 12.3298 26.9614 12.3381 27.0199C12.3421 27.0482 12.3461 27.0764 12.35 27.1045C12.3651 27.2125 12.3082 27.2928 12.2513 27.3732C12.2487 27.3768 12.2462 27.3804 12.2436 27.3841C12.2366 27.3939 12.2294 27.4036 12.2222 27.4134C12.2028 27.4397 12.1834 27.466 12.1676 27.4944C12.1561 27.5152 12.1509 27.5436 12.154 27.5668C12.1614 27.6212 12.1521 27.6713 12.1354 27.722C12.1162 27.7798 12.1104 27.838 12.1227 27.8995C12.1407 27.9901 12.1165 28.0754 12.0603 28.1472C12.0151 28.205 11.9913 28.2681 11.9814 28.3389C11.9663 28.4466 11.9317 28.5486 11.8971 28.6505C11.8884 28.6762 11.8797 28.7018 11.8713 28.7275C11.8497 28.794 11.8296 28.8607 11.8096 28.9274L11.8095 28.9276C11.8036 28.9471 11.7976 28.9666 11.7915 28.9861C11.7753 29.0383 11.7591 29.0906 11.7458 29.1437C11.7204 29.2455 11.6985 29.3484 11.6772 29.4514C11.6636 29.5179 11.6459 29.5803 11.6082 29.6397C11.5809 29.6826 11.5614 29.7304 11.542 29.7781C11.533 29.8002 11.524 29.8222 11.5142 29.8438C11.5009 29.8731 11.4873 29.9022 11.4722 29.9306C11.4542 29.9634 11.4351 29.9956 11.4153 30.0274C11.4127 30.0316 11.4101 30.036 11.4076 30.0403C11.3987 30.0557 11.3895 30.0714 11.3763 30.0812C11.337 30.1103 11.3213 30.152 11.308 30.195C11.2421 30.4077 11.1772 30.6208 11.1126 30.8341C11.068 30.9804 11.0241 31.1266 10.9808 31.2732C10.9713 31.3054 10.9542 31.3282 10.9311 31.3533C10.8807 31.408 10.8352 31.4686 10.7959 31.532C10.7047 31.6796 10.6173 31.8294 10.5299 31.9794L10.5158 32.0035C10.5017 32.0278 10.4892 32.0529 10.4767 32.078C10.4613 32.1087 10.446 32.1394 10.428 32.1683C10.4159 32.1876 10.4002 32.2044 10.3844 32.2214C10.371 32.2357 10.3576 32.2501 10.3464 32.2661C10.1964 32.48 10.0641 32.7042 9.95428 32.9414L9.95329 32.9435C9.94418 32.9632 9.9331 32.9872 9.93728 33.0054C9.94779 33.0502 9.93075 33.0836 9.91272 33.119C9.90848 33.1273 9.90418 33.1358 9.90017 33.1445C9.85163 33.249 9.80989 33.3566 9.77093 33.4651C9.68899 33.6936 9.60829 33.9231 9.53191 34.1537C9.51717 34.1985 9.50918 34.2456 9.50118 34.2927C9.49659 34.3197 9.49201 34.3467 9.48615 34.3733C9.48213 34.3912 9.47471 34.4122 9.46172 34.4243C9.35319 34.5257 9.32413 34.659 9.30929 34.7981C9.30757 34.8131 9.31268 34.8289 9.31765 34.8442C9.31893 34.8481 9.3202 34.8521 9.32135 34.8559C9.32331 34.8625 9.32662 34.869 9.32992 34.8754C9.33494 34.8852 9.3399 34.8949 9.3399 34.9048C9.34052 34.9911 9.39555 35.0146 9.46729 35.021C9.47404 35.0216 9.48078 35.0228 9.48753 35.024C9.49562 35.0255 9.50372 35.0269 9.51181 35.0272C9.54935 35.0287 9.58686 35.0303 9.62436 35.0319C9.72681 35.0362 9.82918 35.0405 9.93171 35.043C10.1099 35.0471 10.2881 35.0504 10.4664 35.0536C10.5684 35.0555 10.6704 35.0574 10.7724 35.0594C10.8901 35.0617 11.0077 35.0642 11.1252 35.0667C11.2428 35.0691 11.3604 35.0716 11.478 35.0739C11.6181 35.0765 11.7583 35.079 11.8984 35.0815C12.0385 35.084 12.1787 35.0864 12.3188 35.0891C12.3215 35.0891 12.3243 35.0891 12.3271 35.0891C12.3542 35.0891 12.3817 35.089 12.3982 35.1184H12.5485C12.5577 35.1169 12.5669 35.1149 12.5761 35.1129C12.5961 35.1086 12.6161 35.1042 12.636 35.1042C12.9282 35.103 13.2207 35.103 13.5132 35.1042C13.5331 35.1044 13.5532 35.1087 13.5732 35.113C13.5824 35.1149 13.5916 35.1169 13.6007 35.1184H13.6307C13.6907 35.0965 13.751 35.0962 13.811 35.1184H18.4413C18.4497 35.1169 18.4582 35.1149 18.4667 35.1128C18.4848 35.1085 18.5029 35.1042 18.5211 35.1042C18.6834 35.103 18.8454 35.103 19.0077 35.1042C19.0259 35.1042 19.044 35.1085 19.0621 35.1128C19.0706 35.1149 19.0791 35.1169 19.0875 35.1184H19.3581C19.4125 35.0767 19.4991 35.0767 19.5535 35.1184H19.8092C19.8271 35.0873 19.8561 35.0879 19.8845 35.0886C19.8885 35.0887 19.8924 35.0888 19.8964 35.0888C19.9382 35.0886 19.98 35.0889 20.0218 35.0893C20.1029 35.09 20.1839 35.0907 20.2646 35.0872C20.3527 35.0836 20.4405 35.0744 20.5283 35.0653C20.5525 35.0628 20.5766 35.0602 20.6008 35.0578C20.6202 35.056 20.6428 35.0523 20.658 35.0415C20.6625 35.0381 20.6673 35.0348 20.6722 35.0313C20.697 35.014 20.7243 34.995 20.7312 34.9713C20.7782 34.8117 20.8024 34.6482 20.6907 34.5047C20.6388 34.4378 20.6131 34.3653 20.5857 34.2879L20.5831 34.2808C20.5119 34.0799 20.4348 33.8809 20.3578 33.682C20.3362 33.6262 20.3146 33.5704 20.2931 33.5146C20.2734 33.4637 20.2523 33.4133 20.2312 33.3628C20.2184 33.3324 20.2057 33.3019 20.1932 33.2713C20.1795 33.2376 20.1581 33.2086 20.137 33.18C20.1227 33.1607 20.1086 33.1416 20.0971 33.1213C20.083 33.0971 20.0798 33.0678 20.0764 33.0375C20.0731 33.0083 20.0698 32.9781 20.0566 32.9506C19.9425 32.7129 19.8151 32.4831 19.6731 32.2611C19.6676 32.2523 19.6619 32.2436 19.6562 32.2348C19.6348 32.2019 19.6133 32.1689 19.5965 32.1337C19.4756 31.8826 19.3438 31.6381 19.1926 31.404C19.191 31.4015 19.1895 31.3989 19.1879 31.3963C19.1829 31.3877 19.1776 31.3788 19.1701 31.3743C19.1154 31.3415 19.0993 31.2881 19.0829 31.2334C19.0806 31.2257 19.0782 31.2179 19.0758 31.2101C18.9886 30.9328 18.8995 30.656 18.8095 30.3796C18.7863 30.3085 18.7598 30.2383 18.7316 30.169C18.7223 30.1468 18.7066 30.1248 18.6883 30.1087C18.5707 30.0041 18.4754 29.8802 18.3802 29.7564C18.3503 29.7175 18.3204 29.6786 18.2898 29.6403C18.2865 29.6364 18.2835 29.6321 18.2804 29.6279C18.2729 29.6176 18.2653 29.6073 18.2554 29.6007C18.148 29.531 18.0906 29.4219 18.0346 29.3153C18.0282 29.3032 18.0219 29.2911 18.0155 29.2792C17.9307 29.1207 17.8563 28.9566 17.782 28.7927C17.7674 28.7606 17.7528 28.7284 17.7382 28.6963C17.7233 28.6641 17.7193 28.6221 17.7245 28.5869C17.7387 28.4924 17.7444 28.3976 17.7501 28.3025C17.7512 28.2851 17.7522 28.2678 17.7533 28.2504C17.7595 28.1518 17.7542 28.0572 17.7406 27.9598C17.7332 27.9073 17.7418 27.8521 17.7504 27.7975C17.7528 27.7821 17.7553 27.7667 17.7573 27.7514C17.7694 27.6605 17.7734 27.5724 17.7221 27.4892C17.709 27.4681 17.7073 27.4388 17.7059 27.4126L17.7057 27.4094C17.7046 27.388 17.7048 27.3666 17.7051 27.3451C17.7054 27.3189 17.7057 27.2926 17.7035 27.2666C17.7004 27.2322 17.6958 27.1942 17.6785 27.1661C17.6296 27.0878 17.6182 27.0016 17.6154 26.9141C17.6128 26.8293 17.5887 26.7509 17.5643 26.6715L17.5604 26.6587C17.5257 26.5461 17.4951 26.4326 17.4679 26.3182C17.4604 26.2868 17.4663 26.2506 17.4717 26.2172L17.4722 26.214C17.48 26.1646 17.4917 26.1157 17.5041 26.0672C17.5202 26.0041 17.5288 25.9435 17.4716 25.894C17.463 25.8866 17.4546 25.8714 17.4559 25.8612C17.4584 25.8425 17.4591 25.8232 17.4597 25.804C17.4613 25.7556 17.463 25.7072 17.4948 25.6658C17.5288 25.6216 17.5378 25.5721 17.54 25.518C17.5416 25.4789 17.5451 25.4399 17.5485 25.4009C17.5511 25.3726 17.5536 25.3444 17.5554 25.3161C17.5565 25.2983 17.5565 25.2804 17.5565 25.2624C17.5565 25.2405 17.5565 25.2187 17.5585 25.1971L17.5586 25.1958C17.562 25.1591 17.5655 25.1212 17.5783 25.0876C17.5999 25.0307 17.612 24.9738 17.6169 24.9129C17.6225 24.8433 17.6389 24.7744 17.6562 24.7067C17.6633 24.6788 17.6825 24.6522 17.7017 24.63C17.7796 24.5403 17.795 24.4395 17.761 24.3285C17.7597 24.3244 17.7584 24.3202 17.7572 24.316C17.7542 24.3057 17.7511 24.2955 17.7465 24.2858C17.7259 24.2426 17.7301 24.2027 17.7497 24.1636ZM18.2098 22.858H30.7182V15.2386H23.039C27.2806 15.2386 30.7182 11.8279 30.7182 7.61932C30.7182 3.41075 27.2806 0 23.039 0H7.67906C3.43742 0 -0.00012207 3.41075 -0.00012207 7.61932H7.67906C3.43742 7.61932 -0.00012207 11.0301 -0.00012207 15.2386V22.858H12.0515C12.0519 22.8251 12.0515 22.7924 12.0501 22.7596C12.0467 22.6839 12.0235 22.6063 11.995 22.5351C11.9511 22.4257 11.9561 22.3199 11.9922 22.2123C11.9984 22.1944 12.0105 22.1737 12.0256 22.1644C12.0711 22.1369 12.0739 22.0961 12.0643 22.0528C12.0349 21.9201 11.9997 21.79 11.9146 21.6793C11.8913 21.649 11.8724 21.6153 11.8535 21.5817C11.8478 21.5716 11.8422 21.5615 11.8364 21.5516C11.8287 21.5383 11.8211 21.525 11.8134 21.5117C11.7587 21.4166 11.7042 21.3218 11.632 21.2374L11.6282 21.233C11.5565 21.1491 11.484 21.0644 11.4706 20.9465C11.4683 20.9275 11.4573 20.9093 11.4465 20.8913C11.4426 20.8849 11.4388 20.8786 11.4354 20.8722C11.3918 20.79 11.3438 20.713 11.2573 20.6651C11.2112 20.6394 11.1877 20.5924 11.2066 20.5358C11.2236 20.4842 11.213 20.4363 11.188 20.3911C11.1693 20.3577 11.15 20.3246 11.1306 20.2915C11.107 20.2512 11.0833 20.2108 11.0609 20.1697C11.047 20.1441 11.0356 20.1147 11.0331 20.0859C11.031 20.0581 11.0344 20.0298 11.0377 20.0014C11.0388 19.9923 11.0399 19.9831 11.0408 19.974C11.0495 19.8837 11.0569 19.7947 11.0012 19.713C10.9821 19.6846 10.9697 19.65 10.961 19.6163C10.9239 19.4687 10.8878 19.3209 10.8517 19.1731C10.8367 19.1119 10.8218 19.0507 10.8068 18.9895C10.8041 18.9789 10.8016 18.9683 10.799 18.9577C10.7917 18.927 10.7843 18.8962 10.7749 18.8661C10.7666 18.8393 10.7575 18.8127 10.7484 18.7861C10.7347 18.7463 10.721 18.7065 10.7103 18.6661C10.7092 18.6618 10.708 18.6576 10.7069 18.6534C10.6841 18.5685 10.6611 18.4829 10.6787 18.3924C10.6817 18.3777 10.6784 18.3615 10.6752 18.3457C10.6744 18.3416 10.6736 18.3374 10.6729 18.3334C10.667 18.2991 10.6608 18.2644 10.6531 18.2304C10.6486 18.2104 10.644 18.1904 10.6395 18.1704C10.6182 18.0757 10.5968 17.9811 10.5736 17.8869C10.5612 17.8371 10.5476 17.7876 10.534 17.7382C10.5204 17.6887 10.5068 17.6392 10.4945 17.5894C10.488 17.5635 10.4864 17.5332 10.4926 17.5075C10.5096 17.4367 10.4979 17.3687 10.4846 17.2994C10.48 17.2752 10.4787 17.2502 10.4774 17.2253C10.4766 17.2101 10.4759 17.195 10.4744 17.1801C10.4714 17.1504 10.4695 17.1207 10.4676 17.0909C10.4618 17.0011 10.4559 16.9113 10.4227 16.8251C10.4045 16.7781 10.4045 16.7289 10.41 16.6773C10.4141 16.6403 10.4099 16.6025 10.4057 16.5646C10.4038 16.5476 10.4019 16.5306 10.4008 16.5137C10.3998 16.4998 10.3988 16.4859 10.3978 16.472C10.3957 16.4442 10.3937 16.4163 10.3924 16.3885C10.392 16.3805 10.3929 16.3723 10.3938 16.3641C10.3951 16.3521 10.3964 16.3402 10.3937 16.3291C10.3874 16.3038 10.3815 16.2784 10.3756 16.2529C10.3577 16.1756 10.3399 16.0983 10.3108 16.0255C10.2684 15.9191 10.2657 15.8124 10.2919 15.7089C10.3188 15.6016 10.3003 15.5128 10.2428 15.4238C10.2118 15.3759 10.1862 15.3236 10.1636 15.2707C10.1336 15.1996 10.1067 15.1266 10.0823 15.0534C10.0301 14.8967 9.9794 14.7399 9.92863 14.5828L9.91223 14.532C9.89678 14.484 9.8816 14.4359 9.86642 14.3878C9.84179 14.3097 9.81715 14.2315 9.79133 14.1539C9.78428 14.1327 9.77412 14.1127 9.76391 14.0926C9.7571 14.0792 9.75027 14.0657 9.74433 14.0519C9.74115 14.0446 9.73761 14.0373 9.73406 14.0299C9.72314 14.0074 9.71211 13.9847 9.71094 13.9616C9.70754 13.8942 9.68342 13.8345 9.6559 13.7754C9.64266 13.7468 9.62835 13.7185 9.61404 13.6902C9.5876 13.638 9.56116 13.5857 9.5415 13.5312C9.51533 13.4585 9.49488 13.3838 9.47444 13.3092C9.46444 13.2727 9.45445 13.2362 9.44379 13.2C9.43844 13.182 9.43378 13.1636 9.42913 13.1451C9.41763 13.0996 9.40612 13.0541 9.38411 13.0145C9.32227 12.9038 9.32567 12.7884 9.33804 12.6706C9.34206 12.6335 9.33928 12.602 9.31887 12.5708C9.28671 12.5219 9.28022 12.4687 9.29537 12.4121C9.29701 12.406 9.29867 12.3998 9.30034 12.3936C9.30843 12.3635 9.31658 12.3332 9.32196 12.3027C9.32815 12.2662 9.33279 12.2291 9.3331 12.1923C9.33369 12.1477 9.33341 12.103 9.33313 12.0583C9.33268 11.9877 9.33223 11.9172 9.33526 11.8469C9.33786 11.7854 9.34414 11.7241 9.35042 11.6627C9.35459 11.622 9.35877 11.5812 9.36185 11.5405C9.37205 11.4038 9.48213 11.3207 9.61632 11.35C9.62022 11.3509 9.62414 11.3518 9.62807 11.3528C9.63882 11.3553 9.64968 11.3579 9.66054 11.3584C9.69765 11.3599 9.71774 11.3426 9.7196 11.3064C9.72021 11.2951 9.71829 11.2837 9.71638 11.2724C9.71537 11.2664 9.71436 11.2605 9.71372 11.2545C9.70982 11.2197 9.70534 11.1849 9.70085 11.1501C9.68584 11.0335 9.67081 10.9168 9.67724 10.7984C9.68272 10.6977 9.6873 10.5966 9.69186 10.4959L9.69208 10.4911C9.69393 10.4527 9.68651 10.4193 9.65992 10.3869C9.64261 10.3662 9.63302 10.3321 9.63395 10.3046C9.63673 10.2248 9.64261 10.1445 9.65405 10.0653C9.7063 9.70446 9.80154 9.35383 9.91501 9.00814C10.0331 8.64822 10.1781 8.29944 10.3541 7.96303C10.4997 7.68506 10.6531 7.41234 10.8516 7.16807C10.9144 7.09077 10.9821 7.01594 11.0566 6.94977C11.0634 6.9437 11.0702 6.9377 11.0771 6.93171C11.1074 6.90508 11.1374 6.87873 11.1639 6.84743C11.1995 6.805 11.2376 6.76478 11.2757 6.72452C11.2909 6.70845 11.3062 6.69236 11.3213 6.67613C11.3273 6.66957 11.3336 6.66317 11.34 6.65675C11.3494 6.64712 11.3589 6.63748 11.3676 6.62728C11.3861 6.60567 11.4042 6.58369 11.4223 6.56172C11.4583 6.51797 11.4943 6.47427 11.5334 6.43372C11.5992 6.36538 11.6691 6.30014 11.7421 6.23954C11.7615 6.22343 11.781 6.20727 11.8004 6.19111C11.9119 6.09836 12.0234 6.00555 12.1419 5.9226C12.4155 5.73121 12.7087 5.57351 13.0138 5.43746C13.2733 5.32213 13.5395 5.22782 13.8128 5.15269C14.1137 5.06982 14.4223 5.03859 14.7321 5.01695C14.7346 5.01678 14.7371 5.01664 14.7396 5.0165C14.7649 5.01507 14.7895 5.01368 14.8038 4.98696L14.8026 4.98665H14.8477C14.8554 4.98822 14.863 4.99019 14.8707 4.99216C14.8871 4.99641 14.9036 5.00066 14.9201 5.00087C15.0623 5.00211 15.2045 5.00211 15.3468 5.00087C15.3632 5.00087 15.3797 4.99656 15.3961 4.99225C15.4038 4.99023 15.4115 4.98822 15.4191 4.98665H15.4643C15.4782 5.01282 15.5017 5.01447 15.5261 5.01619C15.5294 5.01642 15.5327 5.01666 15.536 5.01695C15.5491 5.01801 15.5621 5.019 15.5752 5.01998C15.6269 5.02388 15.6788 5.02779 15.7299 5.03643C15.7641 5.04207 15.7984 5.04768 15.8326 5.05329C16.0254 5.08486 16.2185 5.11647 16.4101 5.15454C16.8452 5.24081 17.2589 5.39294 17.6519 5.59578C17.8714 5.70925 18.0826 5.84128 18.2895 5.97671C18.4799 6.10132 18.6543 6.24788 18.8185 6.40743C18.9808 6.56513 19.1231 6.73859 19.2591 6.91824C19.2938 6.96369 19.3318 7.0144 19.3429 7.06789C19.3553 7.12633 19.3887 7.14797 19.4338 7.16251C19.4796 7.17704 19.5124 7.20579 19.5405 7.24166C19.5954 7.31174 19.65 7.38209 19.7047 7.45247C19.7513 7.51251 19.7979 7.57257 19.8447 7.63249C19.8769 7.67362 19.9047 7.71474 19.867 7.76329C19.8804 7.7813 19.8936 7.79878 19.9066 7.81597C19.9341 7.85219 19.9606 7.88718 19.9851 7.92345C20.0188 7.97324 20.0504 8.02456 20.0782 8.07775C20.0961 8.11189 20.1142 8.14597 20.1323 8.18007C20.194 8.29635 20.2558 8.4128 20.3098 8.53258C20.3625 8.64913 20.4067 8.76944 20.4509 8.88987C20.462 8.91993 20.473 8.94999 20.4842 8.98C20.512 9.05514 20.5386 9.1312 20.5575 9.20881C20.5917 9.3504 20.6239 9.49243 20.656 9.63449C20.6708 9.69998 20.6856 9.76547 20.7006 9.83092C20.7062 9.85535 20.7142 9.87916 20.7229 9.90266C20.7448 9.96203 20.7727 9.97068 20.8231 9.93327C20.8321 9.92667 20.8399 9.91839 20.8477 9.91009C20.852 9.90557 20.8563 9.90104 20.8608 9.89679C20.8822 9.87673 20.9034 9.85637 20.9245 9.83602C20.9715 9.79078 21.0186 9.74554 21.0683 9.70353C21.1273 9.65375 21.1972 9.66488 21.2414 9.7292C21.2596 9.75565 21.2687 9.78898 21.2775 9.82108C21.2785 9.82501 21.2796 9.82891 21.2807 9.83278C21.2868 9.8546 21.2895 9.8773 21.2922 9.89995C21.2931 9.90716 21.2939 9.91436 21.2949 9.92152C21.2981 9.94515 21.3018 9.96875 21.3055 9.99235C21.3142 10.0478 21.3229 10.1032 21.3255 10.159C21.3283 10.2187 21.3363 10.2712 21.3756 10.3192C21.413 10.3643 21.4353 10.4169 21.4328 10.4781C21.4324 10.4878 21.4319 10.4976 21.4313 10.5074C21.428 10.5671 21.4247 10.6271 21.456 10.6834C21.4606 10.6914 21.4619 10.7038 21.4594 10.7128C21.4464 10.7601 21.4619 10.8003 21.4826 10.842C21.4881 10.853 21.4892 10.8661 21.4904 10.8792C21.4912 10.889 21.492 10.8988 21.4947 10.9079C21.5031 10.938 21.5123 10.9677 21.5216 10.9975C21.527 11.0148 21.5324 11.0321 21.5376 11.0495V11.1246C21.5221 11.1644 21.5065 11.2042 21.491 11.244C21.4537 11.3393 21.4165 11.4346 21.379 11.5297C21.3107 11.7031 21.2726 11.8837 21.2513 12.0686C21.2315 12.2402 21.2056 12.4112 21.1777 12.5816C21.1607 12.6855 21.1388 12.7884 21.1134 12.8905C21.0936 12.9706 21.0676 13.0494 21.0398 13.127C21.0231 13.1736 21.0044 13.2194 20.9857 13.2652C20.9694 13.3051 20.9531 13.345 20.9381 13.3855C20.8945 13.5039 20.8444 13.6174 20.7535 13.7093C20.7093 13.7538 20.6929 13.811 20.7025 13.8753C20.7078 13.9113 20.709 13.9478 20.7102 13.9841C20.7104 13.9902 20.7106 13.9963 20.7108 14.0024C20.7115 14.0217 20.7111 14.0411 20.7107 14.0606C20.71 14.0966 20.7093 14.1326 20.7152 14.1675C20.7554 14.4102 20.7003 14.6412 20.6286 14.8691C20.6063 14.9403 20.5802 15.0104 20.5542 15.0805C20.5236 15.1629 20.493 15.2453 20.4684 15.3295C20.4394 15.4286 20.3931 15.5175 20.3464 15.6071C20.3389 15.6214 20.3314 15.6357 20.324 15.6501C20.2786 15.7389 20.2371 15.8295 20.2164 15.9293C20.1945 16.0345 20.1669 16.1393 20.1289 16.2395C20.1259 16.2473 20.1229 16.2552 20.1199 16.2631C20.0807 16.3654 20.0419 16.4668 20.0287 16.5765C20.0268 16.5915 20.0226 16.6062 20.0184 16.6209C20.0171 16.6256 20.0158 16.6303 20.0145 16.6349C19.9994 16.6918 19.9731 16.7416 19.9289 16.7821C19.9128 16.797 19.8989 16.8161 19.8899 16.8359C19.8543 16.9132 19.8188 16.9908 19.7872 17.07C19.7828 17.0811 19.778 17.0924 19.7732 17.1037C19.7539 17.1488 19.7342 17.1949 19.7337 17.2403C19.7328 17.3155 19.7106 17.3767 19.6728 17.4373C19.6598 17.4583 19.6484 17.4815 19.6413 17.505C19.6064 17.6225 19.573 17.7406 19.5402 17.8588C19.5365 17.872 19.5348 17.8857 19.5331 17.8996C19.532 17.9082 19.5309 17.9167 19.5294 17.9252C19.5266 17.9414 19.5245 17.9578 19.5224 17.9743C19.5175 18.0125 19.5127 18.0506 19.4991 18.0854C19.4654 18.1714 19.448 18.2601 19.4502 18.3498C19.4545 18.5208 19.4153 18.6806 19.3615 18.8417C19.3222 18.9589 19.3012 19.0832 19.3098 19.2109C19.3157 19.2962 19.3077 19.3853 19.2285 19.4413C19.1772 19.4777 19.1682 19.5213 19.1942 19.5711C19.2288 19.6373 19.2195 19.7025 19.2004 19.7681C19.1923 19.7965 19.1816 19.8241 19.171 19.8517C19.1654 19.8662 19.1598 19.8806 19.1546 19.8952C19.1497 19.9089 19.1439 19.9225 19.1382 19.9362C19.1251 19.9671 19.1121 19.9979 19.1088 20.0297C19.099 20.127 19.0632 20.215 19.0273 20.3031C19.0181 20.3258 19.0088 20.3485 19 20.3713C18.9867 20.4063 18.9756 20.4425 18.9666 20.4786C18.9521 20.5369 18.938 20.5952 18.924 20.6535C18.9075 20.7217 18.891 20.79 18.8739 20.858C18.8634 20.8996 18.852 20.9409 18.8405 20.9822C18.8299 21.0204 18.8193 21.0586 18.8095 21.097C18.8036 21.1201 18.7988 21.1436 18.7939 21.167C18.7865 21.2026 18.7791 21.2382 18.7681 21.2727C18.7537 21.3183 18.734 21.3625 18.7144 21.4064C18.7097 21.417 18.705 21.4275 18.7004 21.4381C18.6892 21.4638 18.6771 21.4892 18.665 21.5145C18.6436 21.5592 18.6223 21.6039 18.6061 21.6505C18.5885 21.7014 18.5712 21.7523 18.5539 21.8032C18.4818 22.0155 18.4097 22.2277 18.317 22.4325C18.2861 22.5005 18.2573 22.5713 18.2409 22.644C18.2288 22.6979 18.2223 22.753 18.2158 22.8082C18.2139 22.8248 18.2119 22.8414 18.2098 22.858ZM9.05657 42.567V38.1233H12.472L12.1181 39.092H10.4404V39.9917H11.7911L11.4373 40.9619H10.4404V42.567H9.05657ZM14.2792 38.1233H12.8953V42.567H14.2792V38.1233ZM15.2302 42.567V38.1233H18.6456L18.2918 39.092H16.6141V39.9917H17.9648L17.6109 40.9619H16.6141V42.567H15.2302ZM20.2476 39.2644L20.8005 41.1156H19.712L20.246 39.2644H20.2476ZM19.5493 38.1218L17.9301 42.5655H19.2934L19.4656 41.9683H21.0295L21.2096 42.5655H22.6077L20.9885 38.1218H19.5493Z" fill="#A5ACBB"/>
</g>
<defs>
<clipPath id="clip0_1728_212">
<rect width="30.7671" height="47" fill="white"/>
</clipPath>
</defs>
</svg>
